<svg id="Ebene_2" data-name="Ebene 2" xmlns="http://www.w3.org/2000/svg" viewBox="0 0 492 492"><defs><style>.cls-1{fill:#fff;}</style></defs><title>gf_logo</title><path class="cls-1" d="M384.14,4H115.86A111.86,111.86,0,0,0,4,115.86V384.14A111.86,111.86,0,0,0,115.86,496H384.14A111.86,111.86,0,0,0,496,384.14V115.86A111.86,111.86,0,0,0,384.14,4ZM338,178H300c0-21.58,0-38.66,0-55,0-5.12,0-8.76-2-13-9.12-19.07-44.16-18.18-51-18-11.41.29-31.85.92-41,15a26.51,26.51,0,0,0-4,12s.66,253.54,1,274a27.8,27.8,0,0,0,6,10c8.55,9.08,20.53,9.06,23,9h36c2.05,0,15.43-.1,25-11a33,33,0,0,0,8-21l-1-101H248V246l90,1q-.5,72.5-1,145a60.25,60.25,0,0,1-9,28,57.77,57.77,0,0,1-8,10c-12.45,10.44-29.3,12.28-45,14H222c-3.52-.07-35.14-1.2-51-26a53.23,53.23,0,0,1-8-24V120c.07-5,.71-20.2,8-34,0,0,6.48-12.06,15-18,1-.69,2-1.29,2-1.29l.86-.5c6.83-3.79,20.62-8,63.14-8.21,16.6-.07,50.37.41,65,12a55.24,55.24,0,0,1,11,12c4.54,6.24,5.58,12.71,6.15,14.19a54.07,54.07,0,0,1,2.79,11.22A76.42,76.42,0,0,1,338,119Z" transform="translate(-4 -4)"/></svg>