<svg id="Ebene_2" data-name="Ebene 2" xmlns="http://www.w3.org/2000/svg" xmlns:xlink="http://www.w3.org/1999/xlink" viewBox="0 0 75 75"><defs><style>.cls-1{fill:#fff;}.cls-2{fill:url(#Unbenannter_Verlauf_4);}</style><linearGradient id="Unbenannter_Verlauf_4" x1="250" y1="212.5" x2="250" y2="287.5" gradientUnits="userSpaceOnUse"><stop offset="0" stop-color="#ff9d00"/><stop offset="0.99" stop-color="#ee6500"/></linearGradient></defs><title>Unbenannt-1</title><path class="cls-1" d="M270.45,212.5h-40.9a17,17,0,0,0-17.05,17.05v40.9a17,17,0,0,0,17.05,17.05h40.9a17,17,0,0,0,17.05-17.05v-40.9A17,17,0,0,0,270.45,212.5Z" transform="translate(-212.5 -212.5)"/><path class="cls-2" d="M270.45,212.5h-40.9a17,17,0,0,0-17.05,17.05v40.9a17,17,0,0,0,17.05,17.05h40.9a17,17,0,0,0,17.05-17.05v-40.9A17,17,0,0,0,270.45,212.5Zm-7,26.52h-5.79v-8.38a4.16,4.16,0,0,0-.3-2c-1.39-2.91-6.73-2.77-7.78-2.75-1.74.05-4.85.14-6.25,2.29a4.13,4.13,0,0,0-.61,1.83s.1,38.65.16,41.77a4.08,4.08,0,0,0,.91,1.52,4.8,4.8,0,0,0,3.51,1.38h5.48a5.16,5.16,0,0,0,3.81-1.68,5,5,0,0,0,1.22-3.2l-.15-15.4H249.7v-5l13.71.15-.15,22.11a9.21,9.21,0,0,1-1.37,4.26,8.43,8.43,0,0,1-1.22,1.53c-1.9,1.59-4.47,1.87-6.86,2.13h-8.08c-.53,0-5.36-.18-7.77-4a8,8,0,0,1-1.22-3.66V230.18A11.93,11.93,0,0,1,238,225a9.24,9.24,0,0,1,2.28-2.74l.31-.2.13-.08c1-.57,3.14-1.22,9.62-1.25,2.53,0,7.68.06,9.91,1.83a8.57,8.57,0,0,1,1.68,1.83,6.6,6.6,0,0,1,.94,2.16,7.88,7.88,0,0,1,.42,1.71,10.23,10.23,0,0,1,.16,1.77Z" transform="translate(-212.5 -212.5)"/></svg>